<svg width="18" height="18" viewBox="0 0 18 18" fill="none" xmlns="http://www.w3.org/2000/svg">
<path d="M17 17L12.4286 12.4286M7.85714 14.7143C6.95665 14.7143 6.06498 14.5369 5.23303 14.1923C4.40108 13.8477 3.64516 13.3426 3.00841 12.7059C2.37167 12.0691 1.86657 11.3132 1.52197 10.4813C1.17737 9.64931 1 8.75764 1 7.85714C1 6.95665 1.17737 6.06498 1.52197 5.23303C1.86657 4.40108 2.37167 3.64516 3.00841 3.00841C3.64516 2.37167 4.40108 1.86657 5.23303 1.52197C6.06498 1.17737 6.95665 1 7.85714 1C9.67577 1 11.4199 1.72245 12.7059 3.00841C13.9918 4.29437 14.7143 6.03852 14.7143 7.85714C14.7143 9.67577 13.9918 11.4199 12.7059 12.7059C11.4199 13.9918 9.67577 14.7143 7.85714 14.7143Z" stroke="#6E7476" stroke-width="2"/>
</svg>
